<svg id="a" width="22.002" height="22.001" version="1.1" viewBox="0 0 .88009 .88004" xml:space="preserve" xmlns="http://www.w3.org/2000/svg">
<style type="text/css">
	.sketchy_een{fill:#111918;}
</style>
<path class="sketchy_een" d="m0.87468 0.075481c-5.08e-4 -0.0028-0.0013-0.0055-0.0028-8e-3 -3e-3 -0.0049-0.0066-0.0092-0.01024-0.01364-0.0059-0.0082-0.01066-0.01694-0.01788-0.02426-0.0067-0.0069-0.01339-0.01383-0.0201-0.02071-0.0051-0.0052-0.01209-0.0078-0.01905-0.0078-0.0011 0-0.0022 5.03e-4 -0.0034 6.29e-4 -0.0029-1e-3 -6e-3 -0.0017-0.0091-0.0017-7e-3 0-0.01396 0.0026-0.01928 0.0078-0.02141 0.02071-0.04316 0.04102-0.06489 0.06142-0.01899 0.01785-0.03737 0.03633-0.05589 0.05472-0.01899 0.01876-0.03744 0.03806-0.05611 0.05714-0.01858 0.01902-0.03737 0.03772-0.05582 0.05679-0.01097 0.01138-0.02201 0.02273-0.03263 0.03448-0.01123 0.01245-0.0222 0.02518-0.03435 0.03668-5.09e-4 4.72e-4 -6.68e-4 0.0011-0.0011 0.0016-0.0034-0.0034-0.0066-0.0069-0.01005-0.01012-0.01368-0.01292-0.02764-0.02565-0.04145-0.03844-0.02974-0.02738-0.05897-0.05522-0.08919-0.08203-0.0051-0.0045-0.01142-0.0069-0.01778-0.0072-0.0039-2e-3 -0.0081-0.0033-0.0125-0.0033-7e-3 0-0.014 0.0026-0.01918 0.0078-0.0062 0.0062-0.01234 0.01238-0.01839 0.01858-0.0058 6e-3 -0.01097 0.01238-0.01695 0.0181-0.0059 0.0057-0.01241 0.01047-0.01851 0.01584-0.0075 0.0066-0.0145 0.01414-0.01966 0.02266-0.0012 2e-3 -0.0016 0.0042-0.0022 0.0063-2.22e-4 2.2e-4 -5.72e-4 3.14e-4 -7.95e-4 5.34e-4 -0.0092 0.0091-0.01056 0.02656 0 0.03539 0.0018 0.0015 0.0036 0.0031 0.0054 0.0046-0.03518 0.01782-0.07001 0.03665-0.10331 0.05767-0.01584 0.01-0.03152 0.0203-0.04736 0.03033-0.01209 0.0076-0.02446 0.01484-0.03658 0.02244-6e-3 4.08e-4 -0.01183 0.0027-0.01613 0.0069-0.0047 0.0047-0.0074 0.01103-0.0074 0.01763 0 0.0014 6.04e-4 0.0026 8.27e-4 4e-3 6.3e-5 0.0043 8.27e-4 0.0086 0.0031 0.01232 0.0024 0.0041 0.0066 0.0072 0.01107 0.0094 0.01552 0.01713 0.03209 0.03332 0.04924 0.04894 0.01886 0.01716 0.03756 0.03448 0.05592 0.05214 0.01842 0.0176 0.03527 0.03618 0.05159 0.05532 0.01628 0.01908 0.03384 0.03712 0.05169 0.05478 0.0074 0.0073 0.01479 0.01461 0.02246 0.02175 0.0076 0.0071 0.01543 0.01402 0.02239 0.02175 0.0034 0.0038 8e-3 0.0055 0.01272 0.0064 0.0073 0.0096 0.02226 0.01433 0.03273 7e-3 0.01858-0.01292 0.03699-0.02602 0.05604-0.03816 0.0025-0.0016 0.0051-0.0032 0.0077-0.0049-0.0063 0.01364-0.01317 0.02716-0.02204 0.03935-7e-4 7.86e-4 -0.0014 0.0015-0.0022 0.0023-0.0018 0.0019-0.0031 0.0041-0.0042 0.0064-0.0035 0.0014-0.0067 0.0034-0.0094 0.0059-0.0055 0.0054-0.0086 0.01285-0.0086 0.02052 0 0.0081 0.0034 0.01455 0.0086 0.02052 0.01406 0.01603 0.02885 0.03134 0.04389 0.04649 0.0063 0.0063 0.01301 0.01226 0.01962 0.01829 0.0049 0.0046 0.01005 0.0092 0.01492 0.01399 1.59e-4 8.8e-4 0 0.0018 2.54e-4 0.0026 0.0017 0.0063 6e-3 0.01169 0.01164 0.01499 0.0054 0.0031 0.01358 0.0049 0.01963 0.0026 0.0026-1e-3 0.0052-0.0021 0.0078-0.0032 0.0024-0.0017 0.0047-0.0035 7e-3 -0.0055 0.0019-0.0025 0.0039-0.0049 0.0058-0.0074 6.68e-4 -9.74e-4 0.0014-0.0019 0.0021-0.0029 3e-3 -4e-3 0.0055-0.0082 0.0082-0.01238 0.0051-0.0079 0.0097-0.01597 0.0145-0.02401 0.0105-0.01779 0.02102-0.03558 0.03187-0.05321 0.01129-0.01839 0.02239-0.03687 0.03317-0.05551 0.01031-0.01766 0.01966-0.03592 0.02891-0.05416 0.0014 0.0011 0.0026 0.0024 0.0041 0.0034 0.0075 0.0051 0.01746 6e-3 0.02595 0.0032 0.0096-3e-3 0.01727-0.0097 0.02472-0.01628 0.0063-0.0054 0.01183-0.01153 0.01768-0.01744 0.0057-0.0058 0.01215-0.01084 0.01845-0.01603 0.0085-7e-3 0.01543-0.01572 0.02195-0.02448 0.0014-0.0019 0.0019-0.0044 0.0024-0.0069 7.31e-4 -5.66e-4 0.0016-8.17e-4 0.0023-0.0015 0.0095-0.0094 0.0089-0.02414 0-0.03357-0.0087-0.0093-0.01807-0.01792-0.02713-0.02687-0.0085-0.0084-0.01676-0.01694-0.02503-0.02552-0.01664-0.01738-0.0327-0.03536-0.04908-0.05296-0.0139-0.01499-0.02824-0.02955-0.04259-0.04413 0.0069 5.97e-4 0.014-0.0013 0.01889-0.0065 0.0083-0.0089 0.01695-0.01729 0.02548-0.02596 0.0084-0.0085 0.0166-0.01719 0.02497-0.02571 0.01689-0.01713 0.03429-0.03388 0.05181-0.05042 0.01813-0.01713 0.03559-0.03486 0.05353-0.05211 0.01839-0.01773 0.03671-0.03552 0.05465-0.05368 0.01253-0.01267 0.02484-0.02533 0.03763-0.03772 0.01431-0.01377 0.02885-0.02735 0.04329-0.04108 0.0092-0.0087 0.0093-0.02316 0.0018-0.03291zm-0.2411 0.47146c0.0077 0.0079 0.01578 0.01543 0.02379 0.02307-2.22e-4 2.83e-4 -4.13e-4 5.97e-4 -6.04e-4 8.8e-4 -0.0076 0.0086-0.01648 0.01553-0.02475 0.02342-0.0044 0.0041-0.0085 0.0085-0.0126 0.01298-0.0025 0.0027-0.0051 0.0053-0.0078 0.0078-0.0039-0.0035-0.0079-7e-3 -0.01167-0.01062-0.0066-0.0063-0.01241-0.01345-0.01826-0.02046-0.0066-0.0079-0.01314-0.0159-0.01966-0.02389-4e-3 -0.0049-0.01177-0.0074-0.01788-0.0074-0.0067 0-0.01326 0.0027-0.01794 0.0074-0.0047 0.0047-0.0075 0.0111-0.0075 0.01773 0 0.0071 3e-3 0.01238 0.0075 0.01773 0.0079 0.0095 0.01593 0.01898 0.02417 0.02832-0.0017 0.0016-0.0031 0.0035-0.0041 0.0056-0.01794 0.03627-0.03572 0.07245-0.05605 0.10749-0.0092 0.01578-0.0188 0.03127-0.02812 0.04699-0.0052 0.0088-0.01043 0.01763-0.01581 0.02631-0.0073-0.0076-0.01457-0.01534-0.02182-0.02304-0.01104-0.01176-0.02163-0.02389-0.03222-0.03602 0.0049-0.0076 0.0094-0.01556 0.01377-0.02345 5e-3 -9e-3 0.0094-0.01817 0.01387-0.02738 0.0022-0.0045 0.0042-0.0091 0.0062-0.01358 0.0057-0.01226 0.01123-0.02511 0.01247-0.03863 6.04e-4 -0.0068 1.27e-4 -0.01395-0.0035-0.02005-0.0046-0.0078-0.01301-0.01273-0.02207-0.01304h-9.23e-4c-8e-3 0-0.0152 0.0038-0.02207 0.0075-0.0076 0.0041-0.01485 0.0088-0.02233 0.0132-0.0081 0.0047-0.01616 0.0093-0.02411 0.01408-0.01441 0.0086-0.02844 0.01773-0.0424 0.02694-0.0079-0.0071-0.01622-0.01374-0.02382-0.02125-0.0096-0.0094-0.01912-0.01901-0.02856-0.02863-0.0083-0.0085-0.01702-0.01663-0.02548-0.02505-0.0074-0.0074-0.01444-0.01515-0.0215-0.02288 0.01966-0.01603 0.03884-0.03269 0.05782-0.0495 0.01056-0.0093 0.0096-0.02675 0-0.03621-0.0051-5e-3 -0.01145-0.0074-0.01788-0.0074-0.0067 0-0.01345 0.0026-0.01883 0.0074-0.01861 0.01666-0.03706 0.03347-0.05598 0.04985-0.0073-0.0073-0.01425-0.01493-0.02163-0.02213 0.0085-0.0075 0.01743-0.01455 0.0264-0.0215-0.0017 0.0012-0.0033 0.0025-0.0049 0.0037 0.0073-0.0056 0.0146-0.01109 0.02188-0.01666-5.4e-4 4.4e-4 -0.0011 8.49e-4 -0.0017 0.0013 0.01485-0.01113 0.02977-0.02219 0.04472-0.03322 0.0054-4e-3 0.0095-0.0079 0.01136-0.01461 0.0017-0.0063 8.58e-4 -0.01314-0.0025-0.01883-0.0032-0.0055-0.0086-0.0096-0.01473-0.01119-0.0021-5.97e-4 -0.0046-9.12e-4 -0.0071-9.12e-4 -0.0043 0-0.0088 9.75e-4 -0.01199 0.0033-0.03248 0.02433-0.06489 0.04891-0.09606 0.07477-0.0067-0.0066-0.01358-0.01308-0.02023-0.01971-0.0083-0.0083-0.01654-0.01669-0.02459-0.02527 0.0065-0.0041 0.01288-0.0084 0.01947-0.01245 0.01597-0.0098 0.03181-0.0198 0.04787-0.02955 0.03572-0.02169 0.07402-0.03929 0.11168-0.05758 0.0035-0.0017 0.0062-0.0042 0.0083-0.0072 6e-3 0.0052 0.01212 0.01028 0.01813 0.01546 0.01918 0.01656 0.03725 0.03435 0.05563 0.0518 0.01873 0.01785 0.0383 0.03486 0.05703 0.05277 0.0084 8e-3 0.01629 0.01644 0.02468 0.02442 9e-3 0.0085 0.01845 0.01663 0.0277 0.02492 0.0056 0.0051 0.01097 0.01043 0.01616 0.01597 9e-3 0.0098 0.02567 0.0091 0.0348 0 0.0091-0.0089 0.01005-0.02558 0-0.03435-0.03658-0.03187-0.07141-0.06563-0.10713-0.09847-0.03791-0.03492-0.07389-0.07197-0.11272-0.10598-0.0025-0.0022-0.0051-0.0044-0.0076-0.0066 6.3e-5 -6.2e-5 9.5e-5 -1.57e-4 1.59e-4 -2.51e-4 0.0088-0.01031 0.01962-0.01854 0.02888-0.02841 0.0048-0.0051 0.0093-0.01043 0.01438-0.01512l0.0045-0.0042c0.03623 0.03149 0.07255 0.06296 0.1077 0.09567 0.01858 0.01725 0.03581 0.0357 0.05379 0.05362 0.01781 0.01779 0.03553 0.03583 0.05334 0.05368 0.01253 0.01248 0.02516 0.02492 0.03737 0.03772 0.0126 0.01317 0.02561 0.02603 0.03763 0.03967 0.01161 0.01342 0.02338 0.02662 0.03585 0.03929zm0.14212-0.41262c-0.0174 0.01851-0.03473 0.03706-0.05305 0.05459-0.01826 0.01757-0.03658 0.03492-0.05452 0.05271-0.01759 0.01732-0.03502 0.03467-0.05254 0.05205-0.01078 0.01072-0.02169 0.0214-0.03219 0.03247-0.01161 0.0122-0.02338 0.02414-0.03601 0.03517-0.0052 0.0046-0.0072 0.01135-0.0068 0.01798-0.01183-0.01182-0.0237-0.02367-0.03553-0.03552 6.37e-4 -5.34e-4 0.0014-7.23e-4 2e-3 -0.0013 0.01813-0.01908 0.03572-0.03869 0.05452-0.05717 0.01873-0.01845 0.03712-0.03734 0.05598-0.05576 0.03798-0.03699 0.07344-0.07641 0.11323-0.11158 0.02223-0.01964 0.04434-0.03941 0.06613-0.05953 6.3e-5 6.3e-5 1.27e-4 1.26e-4 1.91e-4 1.89e-4 0.0043 0.0041 0.0089 0.0078 0.01291 0.0121 0.0029 4e-3 0.0058 0.0081 0.0088 0.01197 0.0012 0.0015 0.0024 0.0029 0.0037 0.0043-0.01581 0.01559-0.03168 0.03112-0.04688 0.04733z" stroke-width=".031618"/>
</svg>
