<?xml version="1.0" encoding="UTF-8" standalone="no"?>
<!-- Created with Inkscape (http://www.inkscape.org/) -->

<svg
   version="1.1"
   id="svg2"
   width="499.54199"
   height="914.63214"
   viewBox="0 0 499.542 914.63214"
   xmlns="http://www.w3.org/2000/svg"
   xmlns:svg="http://www.w3.org/2000/svg">
  <defs
     id="defs6" />
  <g
     id="g8"
     transform="translate(-48.042585,-47.684082)">
    <path
       style="fill:#000000;stroke-width:1.33333"
       d="m 302.27139,946.71776 c -8.09422,-8.5992 -31.85044,-33.3492 -52.7916,-55.00004 C 228.53862,870.06691 206.9555,847.5526 201.5173,841.68593 196.0791,835.81927 173.08976,811.81927 150.42989,788.3526 90.216024,725.99486 95.830514,737.35406 95.531344,677.28223 c -0.25817,-51.83773 0.0967,-50.08716 -11.33728,-55.92962 -9.02978,-4.61399 -13.80839,-3.37832 -8.71226,2.25285 2.81744,3.11323 4.57456,33.42602 1.93518,33.38453 -18.59528,-0.29239 -35.77887,-33.02798 -27.02286,-51.4799 8.74904,-18.43723 27.35234,-17.70318 53.187936,2.09873 9.35823,7.17269 16.64429,9.10453 16.63426,4.41045 -0.0265,-12.41652 -33.576206,-33.66666 -53.152876,-33.66666 -7.17547,0 -7.17547,0 -6.35303,-4.11222 2.5963,-12.98146 17.29247,-19.85781 29.24377,-13.68318 15.460046,7.98742 32.510686,21.89732 37.703826,30.75874 4.17732,7.12806 7.25776,8.90766 11.82043,6.82876 7.78689,-3.54793 2.85988,-17.8184 -9.41969,-27.28289 -8.03491,-6.19293 -32.266966,-22.07105 -40.456466,-26.50921 -9.48676,-5.1412 -8.90397,-13.76872 1.3388,-19.81928 6.91987,-4.08767 7.23514,-3.94047 28.169516,13.15261 5.38881,4.4 15.09475,11.55759 21.56876,15.90573 12.28188,8.24891 17.37033,13.56715 18.91917,19.77354 1.77447,7.11048 7.31371,5.45037 7.26016,-2.17586 -0.0517,-7.36497 -4.51486,-14.56134 -14.60008,-23.5412 -19.04516,-16.95777 -18.70397,-16.55012 -18.70397,-22.34825 0,-6.8172 -3.12893,-23.49241 -8.0586,-42.94729 -10.74869,-42.41955 -10.90408,-58.22189 -0.6916,-70.33333 3.79349,-4.49887 8.7502,-5.81812 8.7502,-2.3289 0,3.01484 9.55049,36.89652 18.03892,63.99556 13.47408,43.01552 16.31923,51.77451 22.08817,68 5.68877,16 5.68877,16 5.11417,34 -2.75684,86.36098 0.015,114.48774 12.74536,129.33333 4.08752,4.76667 15.47804,18.56667 25.31225,30.66667 42.41684,52.18957 38.03446,48.17147 38.03446,34.87273 0,-9.33936 4.20508,-41.7818 7.97653,-61.5394 2.12521,-11.13343 15.26487,-61.83727 29.88805,-115.33333 4.64536,-16.99412 11.9665,-48.18804 16.27236,-69.33333 2.7636,-13.57152 3.9394,-57.46665 2.07068,-77.30328 -1.64486,-17.4604 -4.59364,-14.48052 19.19375,-19.39616 64.92253,-13.41617 91.96441,-27.37244 112.48505,-58.05332 11.17735,-16.71152 18.62765,-44.98377 17.01815,-64.58057 -1.105,-13.45584 -0.9913,-13.33333 -12.38056,-13.33333 -9.85735,0 -9.85735,0 -9.86742,13.66666 -0.0424,57.57232 -26.55919,83.44945 -100.65659,98.22857 -21.66007,4.32022 -44.84234,10.01132 -79.33334,19.47587 -38.61621,10.59653 -41.825,11.35697 -51.33333,12.16543 -22.33481,1.89902 -54,-16.047 -54,-30.60414 0,-0.29334 4.35,0.2453 9.66667,1.19699 33.06118,5.91795 132.74922,-10.51616 129.75317,-21.39052 -0.41503,-1.50637 -1.13096,-4.98887 -1.59096,-7.73887 -0.69287,-4.14209 -1.38057,-4.99999 -4.00807,-4.99999 -5.6545,0 -30.11786,4.01933 -40.43672,6.64375 C 169.19403,397.76364 129.67,388.35636 108.44361,345.68324 93.865624,316.37595 97.981564,310.79283 144.88797,296.2478 c 92.31249,-28.62481 90.37669,-27.66821 109.33333,-54.02828 27.02565,-37.5804 59.04103,-58.7858 107.30424,-71.07304 21.30332,-5.42356 20.01737,-5.86883 20.07593,6.95149 0.1224,26.79982 7.03934,38.06995 20.61522,33.5895 5.47008,-1.80528 6.03626,-5.40811 2.61944,-16.66819 -5.41202,-17.83519 -3.23587,-40.63485 8.8267,-92.47811 3.01011,-12.937036 6.16824,-29.521876 7.01807,-36.855206 2.60088,-22.4437 7.7918,-22.27233 35.85124,1.18356 71.4083,59.692816 62.9539,177.979476 -12.73183,178.133926 -12.01197,0.0245 -16.91235,4.83852 -16.91235,16.61427 0,12.15947 39.74028,6.79815 59.50858,-8.02824 6.2141,-4.66061 6.5039,-4.56272 12.1263,4.09647 15.0064,23.112 18.3263,30.71325 34.3583,78.66666 16.0512,48.01096 14.6735,26.69094 14.6735,227.07149 0,173.73816 0,173.73816 -9.3278,182 -13.1097,11.61153 -168.04622,167.03346 -181.02806,181.59516 -15.40067,17.2749 -34.55037,35.2545 -37.59405,35.2969 -1.64074,0.023 -8.10516,-5.7946 -17.33334,-15.5984 z m -4.23077,-120.03183 c 1.07267,-2.08341 2.56604,-12.01472 3.45853,-23 7.85752,-96.71433 58.40972,-174.00786 138.19365,-211.29596 31.28194,-14.62007 43.73974,-28.43126 33.77744,-37.44704 -5.0527,-4.57264 -51.98706,16.93889 -74.58227,34.18346 -30.81519,23.51802 -49.30902,40.15034 -59.35314,53.37893 -14.43024,19.00534 -18.59025,24.91174 -20.4641,29.05506 -1.20052,2.65446 -3.45488,6.61864 -5.00971,8.80926 -11.27532,15.88608 -28.00429,64.95286 -33.77173,99.05388 -6.33923,37.48179 -5.56959,41.81328 8.59868,48.39352 6.8802,3.19541 6.92817,3.18949 9.15265,-1.13111 z M 502.36914,447.23029 c 9.2027,-7.91585 -2.0341,-25.38184 -12.0904,-18.79271 -8.0912,5.30151 -8.6412,13.30698 -1.3106,19.07327 4.686,3.68595 8.892,3.59789 13.401,-0.28056 z m -2.5671,-61.11009 c 8.1307,-7.63844 -4.7895,-22.77547 -13.9584,-16.35332 -3.7364,2.61712 -7.3608,9.4733 -6.1452,11.62489 4.5841,8.11367 14.1142,10.35517 20.1036,4.72843 z M 151.17135,348.64175 c 18.2981,-14.82255 16.12826,-33.67351 -2.39567,-20.81296 -14.29474,9.92437 -17.15568,14.59508 -14.00917,22.87104 2.14787,5.64932 7.75926,4.94534 16.40484,-2.05808 z M 338.15974,301.6258 c 12.71991,-6.036 26.06156,-28.65393 26.06156,-44.18185 0,-5.29439 0.59403,-5.23034 -9.69316,-1.04522 -4.56876,1.85871 -11.80523,4.28768 -16.08104,5.39771 -4.2758,1.11004 -11.1758,3.52425 -15.33333,5.36495 -4.59427,2.03404 -14.33302,4.38616 -24.82967,5.99689 -28.29061,4.34124 -28.89925,8.65869 -3.1376,22.25683 19.31167,10.19354 31.04865,11.88825 43.01324,6.21069 z m 108.20892,-93.55529 c 9.84358,-12.90576 9.29348,-38.41393 -0.96614,-44.80224 -6.5621,-4.08601 -12.02688,7.19645 -12.90756,26.64869 -1.08928,24.05975 4.145,30.90874 13.8737,18.15355 z M 195.76373,649.47566 c -0.46552,-2.81768 -0.85302,-24.87032 -0.86108,-49.00587 -0.012,-37.67064 -0.33754,-44.90704 -2.29536,-51.11797 -2.20124,-6.98311 -2.18954,-7.40525 0.33592,-12.11719 4.10357,-7.65637 5.59774,-6.22689 12.46266,11.92306 6.79138,17.95549 8.74374,21.27804 19.75394,33.61738 11.11926,12.4616 9.1655,21.80839 -8.47458,40.54218 -0.84482,0.89721 -2.89033,3.89721 -4.54554,6.66666 -1.65522,2.76944 -4.47047,6.62715 -6.25612,8.57267 -1.78566,1.94552 -4.60267,6.35089 -6.26003,9.78972 -3.01339,6.25241 -3.01339,6.25241 -3.85981,1.12936 z m 28.92024,-420.01867 c -22.8468,-35.71531 -24.16731,-83.38665 -3.46542,-125.10437 12.45483,-25.098546 30.90715,-47.821886 43.96742,-54.144256 10.14781,-4.91247 10.25032,-4.7674 14.23265,20.14426 1.25884,7.87474 4.51319,19.22404 8.60233,29.999996 11.20884,29.5382 22.97079,58.52181 25.07211,61.78235 1.10439,1.71363 1.81004,3.26035 1.56811,3.43717 -0.24192,0.17682 -5.69291,2.85488 -12.1133,5.95124 -24.79673,11.95874 -59.52328,44.00528 -66.27753,61.16257 -2.58035,6.55465 -5.92395,5.62284 -11.58637,-3.22896 z"
       id="path847" />
  </g>
</svg>
