<svg id="a" width="19.342" height="22" version="1.1" viewBox="0 0 12.379 14.08" xml:space="preserve" xmlns="http://www.w3.org/2000/svg">
<style type="text/css">
<![CDATA[
	.st0{fill:#000000;}
]]>
</style>
<g transform="matrix(.0275 0 0 .0275 -.85059 9.5139e-5)">
	<path class="st0" d="m456.62 287.86h-79.906c-27.281 0-49.391 22.125-49.391 49.406s22.109 49.406 49.391 49.406h79.906c27.281 0 24.359-22.125 24.359-49.406s2.922-49.406-24.359-49.406zm-79.906 70.578c-11.688 0-21.172-9.5-21.172-21.172 0-11.688 9.484-21.172 21.172-21.172 11.672 0 21.172 9.484 21.172 21.172 0 11.672-9.5 21.172-21.172 21.172z"/>
	<path class="st0" d="m306.15 337.27c0-38.906 31.656-70.578 70.563-70.578h88.218v-47.703c0-31.172-25.281-56.453-56.468-56.453h-271.84c-28.141 0-27.375-28.359-1-28.359h209.83c5.5 0 9.969-4.469 9.969-9.969v-84.329c0-14.109-7.438-27.156-19.594-34.328-12.125-7.188-27.156-7.406-39.516-0.609l-218.72 120.44c-45.141 28.172-46.656 58.031-46.656 93.609v236.55c0 31.188 25.266 56.469 56.453 56.469h321.08c31.187 0 56.468-25.281 56.468-56.469v-47.703h-88.218c-38.906 0-70.562-31.656-70.562-70.562zm130.61-132.72c2.203 4.344 3.469 9.25 3.469 14.438v7.844h-7.063v-7.844c0-4.031-0.969-7.844-2.688-11.219zm-46.656-17.328h18.359c1.078 0 2.109 0.063 3.156 0.172l-0.703 7.016c-0.797-0.078-1.609-0.109-2.453-0.109h-18.359zm-49.406 0h21.172v7.078h-21.172zm-270.14 298.62c-10-0.078-18.563-4.734-22.969-10.109l5.5-4.391c2.625 3.406 9.875 7.547 17.469 7.469zm0-291.89c-10-0.078-18.563-4.734-22.969-10.109l5.5-4.406c2.625 3.422 9.875 7.563 17.469 7.484zm38.235 293.34h-21.172v-7.063h21.172zm6.093-293h-21.187v-7.078h21.188v7.078zm176.41-7.078h21.172v7.078h-21.172zm-133.11 300.08h-21.156v-7.063h21.156zm6.094-293h-21.172v-7.078h21.172zm43.312 293h-21.172v-7.063h21.172zm6.079-293h-21.172v-7.078h21.172zm43.328 293h-21.172v-7.063h21.172zm6.078-293h-21.172v-7.078h21.172zm43.312 293h-21.172v-7.063h21.172zm49.407 0h-21.188v-7.063h21.188zm77.374-31.766v-1.75h7.063v1.75c0 7.641-2.719 14.672-7.219 20.141l-5.453-4.469c3.515-4.281 5.609-9.719 5.609-15.672zm-49.156 24.703h21.172v7.063h-21.172z"/>
</g>
</svg>
