<svg id="a" width="22" height="22" version="1.1" viewBox="0 0 14.08 14.08" xml:space="preserve" xmlns="http://www.w3.org/2000/svg">
<style type="text/css">
<![CDATA[
	.st0{fill:#000000;}
]]>
</style>
<g transform="matrix(.02263 0 0 .025605 1.3486 .54134)" stroke-width="1.0064" style="paint-order:markers fill stroke">
	<path class="st0" d="m494.42 238.22v-72.281c-0.016-34.063-23.641-62.5-55.422-70.063-3.063-37-33.969-66.125-71.781-66.125h-259.06c-54.172 0.016-98.859 39.844-106.75 91.797h-1.406v252.55c0.016 59.75 48.422 108.16 108.16 108.16h314.12c39.844 0 72.125-32.281 72.141-72.141v-45.672c10.141-2.891 17.563-12.109 17.578-23.156v-79.875c-0.016-11.062-7.437-20.281-17.578-23.187zm-24.203 171.89c-0.016 13.266-5.344 25.172-14.047 33.891-8.703 8.688-20.609 14.031-33.891 14.031h-314.12c-23.219 0-44.125-9.375-59.359-24.578-15.203-15.234-24.578-36.141-24.578-59.359v-235.22l0.203-4.688c1.953-44.625 38.641-80.25 83.734-80.219h259.06c23.719-0.016 43.328 17.219 47.156 39.844h-348.44c-6.688 0-12.125 5.406-12.125 12.094s5.438 12.109 12.125 12.109h357.83l2.484 0.203c24.594 2.031 43.969 22.609 43.969 47.719v71.25h-111.81c-17.688 0-33.766 7.203-45.344 18.781l-0.016 0.016c-11.578 11.578-18.797 27.656-18.766 45.359-0.031 17.688 7.188 33.75 18.781 45.344 11.578 11.594 27.656 18.797 45.344 18.781h111.81v44.641zm17.562-68.843h-129.38c-11.141-0.016-20.875-4.406-28.219-11.703-7.313-7.344-11.688-17.094-11.703-28.219 0.016-11.141 4.391-20.891 11.703-28.25l-0.094 0.094 0.078-0.094h0.016c7.344-7.281 17.078-11.656 28.219-11.688h129.38z" style="paint-order:markers fill stroke"/>
	<path class="st0" d="m341.97 301.34c0 9.578 7.75 17.344 17.344 17.344 9.563 0 17.344-7.766 17.344-17.344 0-9.594-7.781-17.359-17.344-17.359-9.594-1e-3 -17.344 7.765-17.344 17.359z" style="paint-order:markers fill stroke"/>
</g>
</svg>
